<svg xmlns="http://www.w3.org/2000/svg" viewBox="0 0 100 100"><path d="M100,11.3V6.853A6.853,6.853,0,0,0,93.147,0H88.7A6.853,6.853,0,0,0,83.85,2.007L50,35.857,16.15,2.007A6.853,6.853,0,0,0,11.3,0H6.853A6.853,6.853,0,0,0,0,6.853V11.3A6.855,6.855,0,0,0,2.007,16.15L35.857,50,2.007,83.85A6.853,6.853,0,0,0,0,88.7v4.451A6.853,6.853,0,0,0,6.853,100H11.3a6.853,6.853,0,0,0,4.846-2.007L50,64.143l33.85,33.85A6.853,6.853,0,0,0,88.7,100h4.451A6.853,6.853,0,0,0,100,93.147V88.7a6.853,6.853,0,0,0-2.007-4.846L64.143,50l33.85-33.85A6.855,6.855,0,0,0,100,11.3Z"/></svg>